<?xml version="1.0" encoding="iso-8859-1"?>
<!-- Free Icon Download www.onlinewebfonts.com -->
<!DOCTYPE svg PUBLIC "-//W3C//DTD SVG 1.1//EN" "http://www.w3.org/Graphics/SVG/1.1/DTD/svg11.dtd">
<svg version="1.1" id="Capa_1" xmlns="http://www.w3.org/2000/svg" xmlns:xlink="http://www.w3.org/1999/xlink" x="0px" y="0px"
	 width="590.58px" height="590.58px" viewBox="0 0 590.58 590.58" style="enable-background:new 0 0 590.58 590.58;"
	 xml:space="preserve">
<g>
	<g>
		<path d="M241.128,487.457h108.324c9.979,0,18.054-8.074,18.054-18.053s-8.075-18.055-18.054-18.055H241.128
			c-9.979,0-18.054,8.076-18.054,18.055S231.149,487.457,241.128,487.457z"/>
		<path d="M241.128,538.561h108.324c9.979,0,18.054-8.076,18.054-18.055s-8.075-18.055-18.054-18.055H241.128
			c-9.979,0-18.054,8.076-18.054,18.055S231.149,538.561,241.128,538.561z"/>
		<path d="M334.152,554.473h-77.724c-9.979,0-18.054,8.074-18.054,18.053s8.075,18.055,18.054,18.055h77.724
			c9.979,0,18.054-8.076,18.054-18.055S344.131,554.473,334.152,554.473z"/>
		<path d="M295.29,0c-99.719,0-180.54,80.821-180.54,180.54c0,63.363,33.021,118.501,82.458,150.69
			c4.247,2.766,7.812,8.926,7.812,13.996v51.961c0,19.957,16.151,36.107,36.108,36.107h108.324c19.924,0,36.107-16.15,36.107-36.107
			v-51.965c0-5.07,3.568-11.23,7.818-13.992c49.432-32.162,82.452-87.33,82.452-150.69C475.83,80.821,395.01,0,295.29,0z"/>
	</g>
</g>
<g>
</g>
<g>
</g>
<g>
</g>
<g>
</g>
<g>
</g>
<g>
</g>
<g>
</g>
<g>
</g>
<g>
</g>
<g>
</g>
<g>
</g>
<g>
</g>
<g>
</g>
<g>
</g>
<g>
</g>
</svg>
